HIERARCHY
ROOT root
{
	OFFSET	0	13.1	24.9
	CHANNELS 6  Xposition Yposition Zposition Xrotation Yrotation Zrotation
	JOINT spine_1
	{
		OFFSET	0	9.99999	0
		CHANNELS 3  Xrotation Yrotation Zrotation
		JOINT spine_2
		{
			OFFSET	0	112	-10
			CHANNELS 3  Xrotation Yrotation Zrotation
			JOINT spine_3
			{
				OFFSET	0	206.5	19.3
				CHANNELS 3  Xrotation Yrotation Zrotation
				JOINT spine_4
				{
					OFFSET	0	110.4	14.6
					CHANNELS 3  Xrotation Yrotation Zrotation
					JOINT neck_1
					{
						OFFSET	0	71.8	-50.3
						CHANNELS 3  Xrotation Yrotation Zrotation
						JOINT neck_2
						{
							OFFSET	0	86.2	-25.8
							CHANNELS 3  Xrotation Yrotation Zrotation
							JOINT head_ee
							{
								OFFSET	0	179.8	-8.7
								CHANNELS 3  Xrotation Yrotation Zrotation
								End Site
								{
									OFFSET	1	0	0
								}
							}
						}
					}
					JOINT left_clavicle
					{
						OFFSET	-43.2	22.4	-70.8
						CHANNELS 3  Xrotation Yrotation Zrotation
						JOINT left_shoulder
						{
							OFFSET	-93.9	-5.79999	48.7
							CHANNELS 3  Xrotation Yrotation Zrotation
							JOINT left_elbow
							{
								OFFSET	-291.4	-30.8	15.2
								CHANNELS 3  Xrotation Yrotation Zrotation
								JOINT left_lowarm_twist
								{
									OFFSET	-110.7	-3.89999	13.6
									CHANNELS 3  Xrotation Yrotation Zrotation
									JOINT left_hand
									{
										OFFSET	-110.7	-3.89999	13.6
										CHANNELS 3  Xrotation Yrotation Zrotation
										JOINT left_ee
										{
											OFFSET	-80.8	-5.10001	12.1
											CHANNELS 3  Xrotation Yrotation Zrotation
											End Site
											{
												OFFSET	1	0	0
											}
										}
									}
								}
							}
						}
					}
					JOINT right_clavicle
					{
						OFFSET	43.2	22.4	-70.8
						CHANNELS 3  Xrotation Yrotation Zrotation
						JOINT right_shoulder
						{
							OFFSET	93.9	-5.79999	48.7
							CHANNELS 3  Xrotation Yrotation Zrotation
							JOINT right_elbow
							{
								OFFSET	291.4	-30.8	15.2
								CHANNELS 3  Xrotation Yrotation Zrotation
								JOINT right_lowarm_twist
								{
									OFFSET	110.7	-3.89999	13.6
									CHANNELS 3  Xrotation Yrotation Zrotation
									JOINT right_hand
									{
										OFFSET	110.7	-3.89999	13.6
										CHANNELS 3  Xrotation Yrotation Zrotation
										JOINT right_ee
										{
											OFFSET	80.8	-5.10001	12.1
											CHANNELS 3  Xrotation Yrotation Zrotation
											End Site
											{
												OFFSET	1	0	0
											}
										}
									}
								}
							}
						}
					}
				}
			}
		}
	}
	JOINT left_hip
	{
		OFFSET	-82.8	-127.5	0.300001
		CHANNELS 3  Xrotation Yrotation Zrotation
		JOINT left_knee
		{
			OFFSET	-28.2	-396.7	2.2
			CHANNELS 3  Xrotation Yrotation Zrotation
			JOINT left_ankle
			{
				OFFSET	-11.7	-411.3	35.4
				CHANNELS 3  Xrotation Yrotation Zrotation
				JOINT left_toes
				{
					OFFSET	0	-60	-88.6
					CHANNELS 3  Xrotation Yrotation Zrotation
					JOINT left_foot_ee
					{
						OFFSET	-22.5	-16.5	-42.2
						CHANNELS 3  Xrotation Yrotation Zrotation
						End Site
						{
							OFFSET	1	0	0
						}
					}
				}
			}
		}
	}
	JOINT right_hip
	{
		OFFSET	82.8	-127.5	0.300001
		CHANNELS 3  Xrotation Yrotation Zrotation
		JOINT right_knee
		{
			OFFSET	28.2	-396.7	2.2
			CHANNELS 3  Xrotation Yrotation Zrotation
			JOINT right_ankle
			{
				OFFSET	11.7	-411.3	35.4
				CHANNELS 3  Xrotation Yrotation Zrotation
				JOINT right_toes
				{
					OFFSET	0	-60	-88.6
					CHANNELS 3  Xrotation Yrotation Zrotation
					JOINT right_foot_ee
					{
						OFFSET	22.5	-16.5	-42.2
						CHANNELS 3  Xrotation Yrotation Zrotation
						End Site
						{
							OFFSET	1	0	0
						}
					}
				}
			}
		}
	}
}
MOTION
Frames: 13
Frame Time: 0.02
2976.71548655 729.143 -1963.14581276 1.44196562956 1.82849788397 -0.675268591562 -0.343014 0.591211 1.80498 -0.341327 0.475177 1.83893 -0.324679 0.0674224 1.89811 -0.32952 0.366295 1.86367 -1.26849 7.36011 -2.41929 -1.09148 15.1678 -1.68576 -0.0 0.0 -0.0 7.49258 -9.16016 14.4608 30.8545 18.3837 48.8086 0.915218 -24.3879 0.19778 20.5295 0.260863 -2.59549 2.01891 15.0668 19.0581 -0.0 0.0 -0.0 11.3428 13.3143 -22.7557 -22.9794 5.66664 -63.5766 0.894863 23.9069 -0.189453 15.2002 -0.28297 1.9154 1.07489 19.5888 1.18319 0.0 0.0 0.0 8.5121 24.8458 -1.76915 -18.585 0.309794 2.82271 0.6488 -1.86568 -0.0963367 -2.95239 0.0 0.0 -0.0 0.0 -0.0 12.2979 18.534 -1.57903 -56.035 1.78739 -8.07433 13.4696 -27.7031 2.01223 6.66934 -0.0 -0.0 0.0 0.0 0.0 
2972.21918472 729.143 -1960.03002624 1.44284468361 2.70955927911 -0.697470940713 -0.343014 0.591211 1.80498 -0.341327 0.475177 1.83893 -0.324679 0.0674224 1.89811 -0.32952 0.366295 1.86367 -1.26849 7.36011 -2.41929 -1.09148 15.1678 -1.68576 -0.0 0.0 -0.0 7.49258 -9.16016 14.4608 30.8545 18.3837 48.8086 0.915218 -24.3879 0.19778 20.5295 0.260863 -2.59549 2.01891 15.0668 19.0581 -0.0 0.0 -0.0 11.3428 13.3143 -22.7557 -22.9794 5.66664 -63.5766 0.894863 23.9069 -0.189453 15.2002 -0.28297 1.9154 1.07489 19.5888 1.18319 0.0 0.0 0.0 8.5121 24.8458 -1.76915 -18.585 0.309794 2.82271 0.6488 -1.86568 -0.0963367 -2.95239 0.0 0.0 -0.0 0.0 -0.0 12.2979 18.534 -1.57903 -56.035 1.78739 -8.07433 13.4696 -27.7031 2.01223 6.66934 -0.0 -0.0 0.0 0.0 0.0 
2958.53563898 727.821 -1963.19852729 1.16687692003 2.29564157187 -0.078564440765 -0.306619 0.689966 1.74522 -0.30511 0.577534 1.78557 -0.285739 0.180204 1.86795 -0.290296 0.472901 1.81608 -1.33683 7.57375 -1.9041 -1.17299 15.1452 -1.10296 -0.0 0.0 -0.0 7.27309 -10.6591 13.9399 33.239 17.3038 48.551 1.05304 -27.5479 0.258151 20.9885 0.256003 -2.65391 2.06743 14.7047 19.2642 -0.0 0.0 -0.0 11.4567 14.1978 -22.988 -24.2101 6.29904 -63.2218 0.86885 23.2869 -0.17904 14.9028 -0.282339 1.87741 1.09144 19.2239 0.911943 0.0 0.0 0.0 7.46657 25.9818 -1.95073 -17.248 0.318248 2.61775 0.657732 -1.85327 -0.0976571 -2.96758 0.0 0.0 -0.0 0.0 -0.0 16.0337 18.1165 -2.2763 -58.7221 2.06359 -8.38316 13.1218 -27.7155 1.96274 6.42624 -0.0 -0.0 0.0 0.0 0.0 
2937.73062535 726.276 -1951.80751338 0.355981566584 2.31033812028 -0.369905963428 -0.250843 0.751777 2.08199 -0.248644 0.617802 2.12558 -0.223875 0.148857 2.2085 -0.230339 0.495698 2.15731 -0.488388 8.70831 -1.05927 -0.2893 16.4372 -0.179501 -0.0 0.0 -0.0 6.60732 -11.4858 12.487 36.51 15.2635 47.5169 1.22991 -31.351 0.345156 22.2076 0.240821 -2.80889 1.91407 17.708 19.1949 -0.0 0.0 -0.0 11.9071 16.1608 -23.9402 -23.9893 8.12362 -63.4286 0.821425 22.1418 -0.160726 14.2311 -0.280189 1.79165 1.0929 19.4904 1.02029 0.0 0.0 0.0 8.67778 32.7038 -2.8996 -18.285 0.312107 2.77674 1.71358 -6.2796 -0.258067 -2.89135 0.0 0.0 -0.0 0.0 -0.0 23.2705 18.661 -3.43515 -62.0802 2.42875 -8.75055 11.3841 -28.2679 1.71861 6.46738 -0.0 -0.0 0.0 0.0 0.0 
2871.58658141 725.743 -1955.4542025 -0.541171277122 9.457284103 -0.0804401156915 0.0469422 0.686322 1.73514 0.0484339 0.574538 1.77528 0.0674093 0.190936 1.85612 0.0629246 0.481631 1.8027 -0.444465 8.45424 -1.05165 -0.255253 15.972 -0.203287 -0.0 0.0 -0.0 7.72157 -16.0805 14.63 37.7909 13.4418 46.1942 1.97974 -44.437 0.80873 24.0716 0.211241 -3.04515 2.8466 7.00377 22.0369 -0.0 0.0 -0.0 12.3221 19.5425 -24.7066 -21.5396 -3.4335 -64.7174 0.219072 6.19377 -0.0118527 16.4279 -0.283488 2.07219 2.5547 24.8739 -6.06218 0.0 0.0 0.0 4.87322 41.3013 -1.30909 -14.8572 0.321437 2.25098 2.76651 -14.3293 -0.435541 -3.25426 0.0 0.0 -0.0 0.0 -0.0 46.1176 13.2603 -10.4673 -62.777 2.5072 -8.82409 10.8123 -27.501 1.62727 6.68447 -0.0 -0.0 0.0 0.0 0.0 
2866.2660199 725.743 -1949.6674025 -0.542965659004 10.5333678834 -0.0701023551644 0.0469422 0.686322 1.73514 0.0484339 0.574538 1.77528 0.0674093 0.190936 1.85612 0.0629246 0.481631 1.8027 -0.444465 8.45424 -1.05165 -0.255253 15.972 -0.203287 -0.0 0.0 -0.0 7.72157 -16.0805 14.63 37.7909 13.4418 46.1942 1.97974 -44.437 0.80873 24.0716 0.211241 -3.04515 2.8466 7.00377 22.0369 -0.0 0.0 -0.0 12.3221 19.5425 -24.7066 -21.5396 -3.4335 -64.7174 0.219072 6.19377 -0.0118527 16.4279 -0.283488 2.07219 2.5547 24.8739 -6.06218 0.0 0.0 0.0 4.87322 41.3013 -1.30909 -14.8572 0.321437 2.25098 2.76651 -14.3293 -0.435541 -3.25426 0.0 0.0 -0.0 0.0 -0.0 46.1176 13.2603 -10.4673 -62.777 2.5072 -8.82409 10.8123 -27.501 1.62727 6.68447 -0.0 -0.0 0.0 0.0 0.0 
2862.12438614 725.743 -1945.00774763 -0.544534137372 11.3867580327 -0.0618528500583 0.0469422 0.686322 1.73514 0.0484339 0.574538 1.77528 0.0674093 0.190936 1.85612 0.0629246 0.481631 1.8027 -0.444465 8.45424 -1.05165 -0.255253 15.972 -0.203287 -0.0 0.0 -0.0 7.72157 -16.0805 14.63 37.7909 13.4418 46.1942 1.97974 -44.437 0.80873 24.0716 0.211241 -3.04515 2.8466 7.00377 22.0369 -0.0 0.0 -0.0 12.3221 19.5425 -24.7066 -21.5396 -3.4335 -64.7174 0.219072 6.19377 -0.0118527 16.4279 -0.283488 2.07219 2.5547 24.8739 -6.06218 0.0 0.0 0.0 4.87322 41.3013 -1.30909 -14.8572 0.321437 2.25098 2.76651 -14.3293 -0.435541 -3.25426 0.0 0.0 -0.0 0.0 -0.0 46.1176 13.2603 -10.4673 -62.777 2.5072 -8.82409 10.8123 -27.501 1.62727 6.68447 -0.0 -0.0 0.0 0.0 0.0 
2832.76752932 721.778 -1947.97499657 -1.84861919665 15.6448648459 -0.90497162618 0.236666 0.498953 1.9926 0.238799 0.371174 2.0203 0.253076 -0.0526083 2.05343 0.247295 0.272284 2.03598 -0.234719 8.0155 -1.25756 -0.0513622 15.3358 -0.495674 -0.0 0.0 -0.0 7.15067 -14.6185 13.4801 39.2377 14.381 51.0105 2.40833 -50.0224 1.12373 23.5366 0.220519 -2.97743 4.21508 -3.25042 28.0989 -0.0 0.0 -0.0 11.7341 17.1477 -23.4987 -22.1175 -7.01812 -65.3227 0.253555 7.15923 -0.0158617 17.8732 -0.279791 2.25676 1.90063 20.5999 -3.8215 0.0 0.0 0.0 0.71742 43.1421 3.46646 -10.4204 0.286819 1.57128 1.84474 -20.0864 -0.305557 -3.55016 0.0 0.0 -0.0 0.0 -0.0 52.7462 20.2134 -13.2323 -58.2946 2.01868 -8.33488 8.29856 -27.961 1.26211 2.62345 -0.0 -0.0 0.0 0.0 0.0 
2819.46594594 720.704 -1955.35013485 -2.54886367413 18.6418707399 -0.743297876377 0.345715 0.215057 1.96282 0.347854 0.0897464 1.97252 0.351794 -0.314977 1.94929 0.346492 -0.00323278 1.97456 -0.666846 8.35308 -0.819751 -0.494874 15.6235 0.0620351 -0.0 0.0 -0.0 6.87021 -14.3806 12.89 39.1109 15.2232 53.1766 2.71788 -53.3875 1.36677 23.5542 0.220223 -2.97966 4.67741 -5.54099 30.6249 -0.0 0.0 -0.0 11.1647 15.8136 -22.2679 -22.686 -8.96802 -66.0638 0.24951 7.0462 -0.0153617 18.3551 -0.277524 2.31827 2.06313 19.9911 -5.18166 0.0 0.0 0.0 -0.451956 44.8387 4.17129 -9.51527 0.273299 1.43305 2.93188 -23.2301 -0.499541 -4.22794 0.0 0.0 -0.0 0.0 -0.0 54.8964 25.5116 -15.3744 -53.9977 1.58788 -7.83187 6.84987 -29.1654 1.05429 1.75294 -0.0 -0.0 0.0 0.0 0.0 
2790.89061635 717.751 -1964.37023436 -4.50029899694 22.4603951695 0.0762626969246 0.670838 -0.0737833 2.02825 0.673104 -0.20267 2.01945 0.666411 -0.600341 1.9388 0.661279 -0.286675 2.00925 -0.78644 8.83704 -0.313745 -0.61398 16.0958 0.67092 -0.0 0.0 -0.0 6.34343 -14.0208 11.7814 38.3681 15.6128 54.9888 3.12356 -57.114 1.70028 23.4385 0.22215 -2.96501 5.27491 -8.57922 33.8513 -0.0 0.0 -0.0 10.691 14.4416 -21.2564 -23.5123 -10.5059 -67.7532 0.265471 7.49196 -0.0173813 18.8491 -0.274662 2.3813 2.24223 19.1709 -6.7583 0.0 0.0 0.0 -1.56328 47.4511 4.99197 -8.41193 0.253866 1.26486 4.39254 -27.0066 -0.77778 -4.84766 0.0 0.0 -0.0 0.0 -0.0 57.8218 31.5434 -18.0303 -51.7124 1.37456 -7.55176 5.13202 -31.2447 0.805238 0.81929 -0.0 -0.0 0.0 0.0 0.0 
2767.54943902 709.262 -1971.46482322 -5.06756881926 22.2368309132 0.03346334033 0.952719 0.453543 1.95021 0.954775 0.328552 1.9751 0.966775 -0.0601035 2.00133 0.961278 0.25666 1.98572 0.68659 8.76783 -0.172852 0.885206 15.7016 0.645555 -0.0 0.0 -0.0 5.61996 -14.4096 10.2097 37.8252 13.0109 54.5427 3.01434 -56.1785 1.60905 23.6407 0.218763 -2.99061 5.06217 -7.38057 32.7644 -0.0 0.0 -0.0 10.7189 12.9706 -21.3649 -27.2703 -6.2967 -66.8857 0.25462 7.189 -0.0159948 18.6843 -0.275677 2.36027 2.35725 19.3545 -7.43911 0.0 0.0 0.0 -2.00689 50.2612 5.10007 -12.2539 0.307507 1.85182 8.15754 -28.9197 -1.45894 -4.77325 0.0 0.0 -0.0 0.0 -0.0 59.5785 36.675 -21.5766 -42.2168 0.613791 -6.3058 2.33907 -28.9269 0.363578 0.882074 -0.0 -0.0 0.0 0.0 0.0 
2714.66424203 694.417 -1988.91910498 -7.27013099654 23.5164382631 0.895642190806 2.14718 0.478568 1.95957 2.14924 0.352931 1.98603 2.16144 0.00378562 2.01713 2.1559 0.322243 1.99124 2.83308 8.74669 -1.07353 3.11596 16.1855 -0.594657 -0.0 0.0 -0.0 4.64406 -15.0212 8.08455 34.6525 12.8772 53.4441 2.93687 -55.4859 1.54495 21.7062 0.247465 -2.74518 5.66004 -7.30562 37.7251 -0.0 0.0 -0.0 10.3836 12.2687 -20.6367 -32.1506 -4.94347 -67.2422 0.244563 6.90786 -0.0147608 17.1374 -0.282255 2.16281 2.47168 18.4125 -8.6526 0.0 0.0 0.0 -4.95355 51.8703 7.16774 -13.4962 0.316417 2.04223 13.2071 -30.2285 -2.34987 -4.7384 0.0 0.0 -0.0 0.0 -0.0 58.7737 41.1224 -22.184 -22.4382 -0.258714 -3.41163 -5.05948 -22.7847 -0.77196 -5.66313 0.0 0.0 0.0 0.0 0.0 
2695.34397483 690.882 -1996.44664385 -8.80555797467 23.9579374994 1.70272832902 2.66377 0.491072 1.80003 2.6655 0.375555 1.82762 2.67719 0.0703007 1.86447 2.67252 0.363827 1.82999 2.4444 8.30553 -0.833342 2.68222 15.2504 -0.310748 -0.0 0.0 -0.0 4.73865 -15.2228 8.2704 31.7429 11.1855 52.8763 2.9094 -55.2343 1.52235 21.9873 0.243808 -2.78091 5.82571 -6.97838 39.3274 -0.0 0.0 -0.0 10.5191 10.5127 -20.9681 -31.2905 -8.43075 -65.4918 0.214316 6.0603 -0.0113449 16.8854 -0.282821 2.13062 2.58944 16.8752 -10.176 0.0 0.0 0.0 -6.04587 50.4484 8.97293 -11.8773 0.303991 1.79415 15.2381 -30.2384 -2.68419 -5.98701 0.0 0.0 -0.0 0.0 -0.0 56.7192 42.0109 -20.1589 -14.5713 -0.320794 -2.20712 -4.84088 -19.7159 -0.729482 -6.42549 0.0 0.0 0.0 0.0 0.0 
